<?xml version="1.0" encoding="UTF-8" standalone="no"?>
<svg
   xmlns:dc="http://purl.org/dc/elements/1.1/"
   xmlns:cc="http://creativecommons.org/ns#"
   xmlns:rdf="http://www.w3.org/1999/02/22-rdf-syntax-ns#"
   xmlns:svg="http://www.w3.org/2000/svg"
   xmlns="http://www.w3.org/2000/svg"
   xmlns:sodipodi="http://sodipodi.sourceforge.net/DTD/sodipodi-0.dtd"
   xmlns:inkscape="http://www.inkscape.org/namespaces/inkscape"
   version="1.1"
   x="0"
   y="0"
   width="256"
   height="256"
   viewBox="0 0 256 256"
   id="svg686"
   sodipodi:docname="cucumber.svg"
   inkscape:version="0.92.4 (5da689c313, 2019-01-14)">
  <title
     id="title1497">Cucumber</title>
  <metadata
     id="metadata690">
    <rdf:RDF>
      <cc:Work
         rdf:about="">
        <dc:format>image/svg+xml</dc:format>
        <dc:type
           rdf:resource="http://purl.org/dc/dcmitype/StillImage" />
        <dc:title>Cucumber</dc:title>
        <cc:license
           rdf:resource="http://creativecommons.org/publicdomain/zero/1.0/" />
        <dc:creator>
          <cc:Agent>
            <dc:title>oksmith</dc:title>
          </cc:Agent>
        </dc:creator>
        <dc:source>https://openclipart.org/detail/320976</dc:source>
      </cc:Work>
      <cc:License
         rdf:about="http://creativecommons.org/publicdomain/zero/1.0/">
        <cc:permits
           rdf:resource="http://creativecommons.org/ns#Reproduction" />
        <cc:permits
           rdf:resource="http://creativecommons.org/ns#Distribution" />
        <cc:permits
           rdf:resource="http://creativecommons.org/ns#DerivativeWorks" />
      </cc:License>
    </rdf:RDF>
  </metadata>
  <sodipodi:namedview
     pagecolor="#ffffff"
     bordercolor="#666666"
     borderopacity="1"
     objecttolerance="10"
     gridtolerance="10"
     guidetolerance="10"
     inkscape:pageopacity="0"
     inkscape:pageshadow="2"
     inkscape:window-width="1920"
     inkscape:window-height="1025"
     id="namedview688"
     showgrid="false"
     inkscape:zoom="0.57250471"
     inkscape:cx="362.78303"
     inkscape:cy="-55.006696"
     inkscape:window-x="-8"
     inkscape:window-y="-8"
     inkscape:window-maximized="1"
     inkscape:current-layer="svg686"
     fit-margin-top="0"
     fit-margin-left="0"
     fit-margin-right="0"
     fit-margin-bottom="0" />
  <defs
     id="defs59" />
  <g
     id="g1846"
     transform="matrix(0.8920447,0.40019945,-0.40019945,0.8920447,135.46559,-449.35925)">
    <path
       d="m 261.903,480.045 v 18.762 l 15.93,29.244 2.646,-1.431 -15.579,-28.566 v -18.009 h -2.997"
       id="path77"

       style="fill:#040806" />
    <path
       d="m 197.481,662.835 18.387,2.619 0.432,-2.97 -18.387,-2.619 -0.432,2.97"
       id="path89"

       style="fill:#040806" />
    <path
       d="m 269.004,469.866 c -0.054,0.081 -12.15,22.383 -12.15,53.352 0,3.483 0.162,7.074 0.513,10.773 3.348,36.207 10.989,47.925 11.124,48.114 l 1.863,-1.242 c -0.324,-0.513 -7.533,-12.285 -10.746,-47.088 -0.351,-3.618 -0.486,-7.155 -0.486,-10.557 0,-15.201 2.97,-28.296 5.94,-37.584 1.485,-4.644 2.97,-8.316 4.077,-10.854 0.567,-1.269 1.026,-2.241 1.35,-2.889 0.162,-0.324 0.27,-0.567 0.378,-0.729 l 0.108,-0.243 -1.971,-1.053"
       id="path313"

       style="fill:#af4f31" />
    <path
       d="m 298.38,462.441 c 0,0 0.003,0 0.006,0 h -0.006"
       id="path323"

       style="fill:#a76433" />
    <path
       d="m 298.386,462.441 0.36,0.081 c 0,-0.003 0,-0.003 0,-0.006 -0.207,-0.045 -0.333,-0.069 -0.36,-0.075"
       id="path331"

       style="fill:#a76433" />
    <path
       d="m 278.949,396.711 c -1.173,-3.528 2.352,-15.87 2.352,-15.87 0,0 5.292,-2.355 7.056,-1.176 1.761,1.176 3.522,9.402 3.522,9.402 l -4.113,10.581 -9.402,2.352 0.585,-5.289"
       id="path625"

       style="fill:#335532" />
    <path
       d="m 278.94,396.723 2.862,-0.972 -0.054,-0.27 c -0.027,-0.189 -0.027,-0.459 -0.027,-0.756 -0.027,-1.917 0.567,-5.319 1.215,-8.1 0.297,-1.377 0.621,-2.619 0.864,-3.537 0.108,-0.432 0.216,-0.81 0.27,-1.053 l 0.108,-0.378 -2.889,-0.81 1.242,2.727 c 0.135,-0.054 0.945,-0.405 1.89,-0.702 0.918,-0.324 2.079,-0.567 2.511,-0.54 h 0.162 l 0.189,-1.08 -0.594,0.918 0.405,0.162 0.189,-1.08 -0.594,0.918 0.702,-1.08 -0.972,0.864 0.27,0.216 0.702,-1.08 -0.972,0.864 h 0.027 c 0.081,0.108 0.432,0.756 0.729,1.566 0.486,1.215 0.945,2.808 1.269,4.05 0.162,0.621 0.27,1.161 0.378,1.539 0.081,0.378 0.135,0.594 0.135,0.594 l 2.916,-0.648 -2.781,-1.08 -3.564,9.126 -3.699,0.945 0.108,-0.999 0.054,-0.648 -0.189,-0.648 -2.862,0.972 -2.97,-0.351 -1.053,9.585 15.093,-3.78 4.995,-12.852 -0.189,-0.891 c 0,-0.054 -0.459,-2.16 -1.161,-4.482 -0.351,-1.188 -0.756,-2.403 -1.269,-3.537 -0.243,-0.567 -0.513,-1.107 -0.837,-1.62 -0.351,-0.54 -0.756,-1.08 -1.539,-1.62 -1.134,-0.756 -2.187,-0.837 -3.078,-0.837 -1.755,0.027 -3.321,0.486 -4.617,0.891 -1.269,0.432 -2.187,0.837 -2.241,0.864 l -1.269,0.567 -0.378,1.35 c -0.027,0.054 -0.675,2.349 -1.35,5.319 -0.648,2.97 -1.35,6.48 -1.377,9.396 0.027,0.972 0.081,1.917 0.405,2.943 l 2.835,-0.945 -2.97,-0.351 2.97,0.351"
       id="path627"

       style="fill:#010604" />
    <path
       d="m 296.571,411.978 c -1.755,-10.557 -20.547,-21.141 -32.886,-3.51 -12.339,17.631 -20.574,98.739 -28.809,126.927 -8.208,28.215 -20.547,81.108 -37.017,95.202 -16.443,14.121 -32.886,52.92 -20.547,63.477 12.339,10.584 44.064,-3.51 53.46,-14.094 9.396,-10.584 41.121,-112.833 41.121,-112.833 l 24.678,-126.954 c 0,0 1.782,-17.631 0,-28.215"
       id="path629"

       style="fill:#43713e" />
    <path
       d="m 296.571,411.978 2.97,-0.486 c -0.729,-4.185 -3.294,-7.938 -6.831,-10.773 -3.537,-2.781 -8.127,-4.671 -13.149,-4.698 -3.159,0 -6.453,0.783 -9.612,2.538 -3.159,1.755 -6.129,4.455 -8.721,8.181 -1.809,2.592 -3.348,5.967 -4.806,10.071 -2.592,7.155 -4.914,16.524 -7.101,27 -3.321,15.687 -6.318,33.831 -9.153,50.355 -2.835,16.497 -5.535,31.428 -8.154,40.389 -4.131,14.205 -9.261,34.428 -15.39,52.788 -3.078,9.18 -6.372,17.901 -9.882,25.083 -3.483,7.209 -7.263,12.879 -10.827,15.903 -6.696,5.751 -13.014,14.877 -17.847,24.678 -4.779,9.828 -8.046,20.304 -8.073,29.049 0,2.838 0.351,5.538 1.188,7.968 0.837,2.43 2.187,4.644 4.158,6.345 3.861,3.267 8.91,4.455 14.202,4.455 7.965,0 16.794,-2.619 24.678,-6.21 7.911,-3.618 14.769,-8.154 18.792,-12.636 0.837,-0.945 1.566,-2.106 2.376,-3.537 2.997,-5.319 6.831,-14.688 11.043,-26.001 12.636,-33.831 28.323,-84.375 28.323,-84.402 l 0.054,-0.162 24.732,-127.251 0.027,-0.135 c 0,-0.054 0.783,-7.938 0.81,-16.497 -0.027,-4.266 -0.216,-8.694 -0.837,-12.501 l -2.97,0.486 -2.943,0.513 c 0.54,3.24 0.729,7.425 0.729,11.502 0,4.104 -0.189,8.1 -0.378,11.043 -0.108,1.485 -0.189,2.7 -0.27,3.564 -0.054,0.834 -0.108,1.296 -0.108,1.296 l 2.97,0.297 -2.943,-0.567 -24.678,126.954 2.943,0.567 -2.862,-0.891 c 0,0 -0.486,1.593 -1.377,4.401 -3.105,9.828 -10.962,34.614 -19.089,58.05 -4.05,11.718 -8.181,23.112 -11.772,32.076 -1.809,4.509 -3.456,8.397 -4.914,11.394 -0.729,1.485 -1.377,2.754 -1.971,3.753 -0.567,0.999 -1.08,1.728 -1.377,2.052 -3.024,3.456 -9.477,7.857 -16.794,11.178 -7.317,3.348 -15.579,5.697 -22.194,5.67 -4.428,0 -7.965,-1.026 -10.287,-3.024 -1.026,-0.891 -1.836,-2.106 -2.403,-3.726 -0.567,-1.65 -0.864,-3.672 -0.864,-6.024 -0.027,-7.233 2.943,-17.169 7.479,-26.403 4.509,-9.234 10.611,-17.847 16.362,-22.761 4.644,-4.023 8.586,-10.26 12.312,-17.82 5.508,-11.367 10.368,-25.758 14.634,-40.017 4.266,-14.226 7.911,-28.293 10.989,-38.796 2.133,-7.29 4.185,-17.685 6.318,-29.592 3.186,-17.793 6.507,-38.907 10.179,-57.132 1.836,-9.126 3.753,-17.523 5.751,-24.381 1.998,-6.858 4.158,-12.231 6.129,-14.958 2.16,-3.105 4.455,-5.13 6.723,-6.399 2.268,-1.242 4.509,-1.755 6.696,-1.755 3.456,-0.027 6.831,1.323 9.423,3.402 2.592,2.025 4.266,4.752 4.644,7.047 l 2.943,-0.513"
       id="path631"

       style="fill:#010604" />
    <path
       d="m 285.258,415.515 v 14.094 h 0.756 l -0.756,-0.108 c 0,0 -0.27,1.809 -0.756,4.941 -1.728,11.043 -6.048,38.718 -10.314,64.611 -2.16,12.96 -4.293,25.434 -6.075,35.181 -0.891,4.86 -1.701,9.045 -2.376,12.231 -0.675,3.186 -1.242,5.454 -1.593,6.291 -1.755,4.428 -10.125,26.892 -18.522,48.951 -4.185,11.016 -8.37,21.924 -11.718,30.402 -1.674,4.239 -3.159,7.857 -4.32,10.584 -1.134,2.727 -2.025,4.59 -2.376,5.13 -0.837,1.242 -2.916,3.672 -5.562,6.561 -3.942,4.32 -9.153,9.72 -13.365,14.013 -4.212,4.293 -7.425,7.506 -7.425,7.533 h -0.027 l -14.121,15.903 1.134,0.999 14.094,-15.876 -0.567,-0.513 0.54,0.54 c 0,0 5.724,-5.724 11.907,-12.123 3.078,-3.213 6.291,-6.561 8.937,-9.477 2.646,-2.916 4.752,-5.319 5.697,-6.723 0.513,-0.783 1.35,-2.619 2.511,-5.373 8.181,-19.224 31.509,-82.296 34.587,-89.964 0.486,-1.242 1.134,-3.969 1.944,-7.965 5.751,-27.891 19.251,-115.614 19.251,-115.614 v -14.229 h -1.485"
       id="path633"

       style="fill:#203522" />
    <path
       d="m 280.074,406.335 -7.128,12.447 -0.027,0.135 c 0,0 -0.351,2.025 -0.999,5.616 -2.241,12.555 -7.938,44.091 -13.851,73.656 -2.943,14.769 -5.967,29.052 -8.613,40.203 -1.323,5.562 -2.565,10.368 -3.645,14.04 -1.08,3.672 -2.079,6.264 -2.754,7.236 -1.836,2.781 -4.995,9.693 -8.91,18.711 -5.832,13.527 -13.203,31.698 -19.602,46.953 -3.213,7.641 -6.183,14.553 -8.586,19.818 -1.215,2.619 -2.268,4.806 -3.159,6.48 -0.864,1.647 -1.593,2.781 -1.944,3.132 -2.754,2.754 -6.696,8.478 -10.017,13.554 -3.321,5.103 -5.967,9.504 -5.967,9.504 l 0.621,0.405 -0.594,-0.459 -5.292,7.047 1.215,0.891 5.319,-7.074 v -0.027 c 0,0 0.675,-1.107 1.728,-2.835 1.62,-2.592 4.158,-6.615 6.777,-10.476 2.619,-3.861 5.346,-7.56 7.263,-9.477 0.81,-0.837 1.809,-2.646 3.186,-5.373 4.725,-9.477 12.987,-29.673 20.844,-48.654 3.942,-9.504 7.776,-18.684 11.016,-26.082 3.24,-7.371 5.886,-12.987 7.344,-15.201 0.999,-1.512 2.106,-4.698 3.429,-9.315 9.126,-32.157 26.676,-132.003 26.676,-132.03 l -0.756,-0.108 0.675,0.351 7.047,-12.339 -1.296,-0.729"
       id="path635"

       style="fill:#203522" />
    <path
       d="m 241.89,564.945 c -1.365,2.778 -3.048,6.471 -4.935,10.761 -3.24,7.398 -7.074,16.578 -11.016,26.082 -7.857,18.981 -16.119,39.177 -20.844,48.654 -1.377,2.727 -2.376,4.536 -3.186,5.373 -1.917,1.917 -4.644,5.616 -7.263,9.477 -2.619,3.861 -5.157,7.884 -6.777,10.476 -0.429,0.705 -0.795,1.302 -1.077,1.77 6.435,-7.953 18.882,-26.721 21.624,-32.229 3.537,-7.071 13.527,-27.024 15.282,-28.806 1.782,-1.755 17.631,-44.658 17.631,-48.198 0,-0.429 0.204,-1.614 0.561,-3.36 m 34.701,-160.014 c 0,0 -8.208,1.755 -10.557,8.829 -2.376,7.047 -21.168,102.843 -21.168,102.843 l -14.094,52.893 c 0,0 -15.876,48.195 -18.819,51.705 -2.943,3.537 -6.453,11.772 -11.178,15.876 -4.698,4.104 -14.688,20.574 -16.443,22.923 -1.755,2.349 -5.886,8.802 -5.292,14.094 0.528,4.713 1.509,6.618 3.375,6.978 l 2.484,-3.306 0.003,0.003 c 0.303,-0.504 2.823,-4.671 5.937,-9.453 3.321,-5.076 7.263,-10.8 10.017,-13.554 0.351,-0.351 1.08,-1.485 1.944,-3.132 0.891,-1.674 1.944,-3.861 3.159,-6.48 2.403,-5.265 5.373,-12.177 8.586,-19.818 6.399,-15.255 13.77,-33.426 19.602,-46.953 3.9,-8.982 7.05,-15.876 8.889,-18.678 3.636,-16.029 11.82,-48.39 11.82,-48.39 l 8.802,-47.007 6.36,-29.199 c 0.774,-4.269 1.419,-7.863 1.902,-10.572 0.648,-3.591 0.999,-5.616 0.999,-5.616 l 0.027,-0.135 1.014,-1.77 2.631,-12.081"
       id="path637"

       style="fill:#64925e" />
    <path
       d="m 243.036,559.701 c -1.839,2.802 -4.989,9.696 -8.889,18.678 -5.832,13.527 -13.203,31.698 -19.602,46.953 -3.213,7.641 -6.183,14.553 -8.586,19.818 -1.215,2.619 -2.268,4.806 -3.159,6.48 -0.864,1.647 -1.593,2.781 -1.944,3.132 -2.754,2.754 -6.696,8.478 -10.017,13.554 -3.114,4.782 -5.634,8.949 -5.937,9.453 l -0.003,-0.003 -2.484,3.306 c 0.228,0.045 0.471,0.069 0.729,0.069 0.513,0 1.845,-1.377 3.648,-3.603 0.282,-0.468 0.648,-1.065 1.077,-1.77 1.62,-2.592 4.158,-6.615 6.777,-10.476 2.619,-3.861 5.346,-7.56 7.263,-9.477 0.81,-0.837 1.809,-2.646 3.186,-5.373 4.725,-9.477 12.987,-29.673 20.844,-48.654 3.942,-9.504 7.776,-18.684 11.016,-26.082 1.887,-4.29 3.57,-7.983 4.935,-10.761 0.291,-1.413 0.681,-3.195 1.146,-5.244 m 30.924,-142.689 -1.014,1.77 -0.027,0.135 c 0,0 -0.351,2.025 -0.999,5.616 -0.483,2.709 -1.128,6.303 -1.902,10.572 l 3.942,-18.093"
       id="path639"

       style="fill:#55694f" />
    <path
       d="m 270.372,521.523 -10.842,43.374 c 2.271,-6.03 3.936,-10.431 4.614,-12.141 0.351,-0.837 0.918,-3.105 1.593,-6.291 0.675,-3.186 1.485,-7.371 2.376,-12.231 0.705,-3.855 1.464,-8.139 2.259,-12.711 m 20.34,-110.706 -2.349,14.688 -7.092,39.117 c -4.413,27.714 -10.419,64.437 -13.779,80.736 -0.81,3.996 -1.458,6.723 -1.944,7.965 -1.08,2.688 -4.647,12.189 -9.18,24.222 l -1.512,6.045 -27.621,78.759 -27.621,20.574 -9.396,9.396 c 0,0 16.443,-4.698 20.547,-5.889 4.131,-1.158 15.876,-11.148 18.225,-11.742 2.349,-0.594 6.48,-14.688 6.48,-14.688 l 9.99,-26.46 9.99,-28.782 11.745,-38.799 9.396,-47.007 c 0,0 14.688,-84.051 15.282,-89.91 0.594,-5.886 -1.161,-18.225 -1.161,-18.225"
       id="path641"

       style="fill:#375a34" />
    <path
       d="m 281.271,464.622 -8.784,48.444 -2.115,8.457 c -0.795,4.572 -1.554,8.856 -2.259,12.711 -0.891,4.86 -1.701,9.045 -2.376,12.231 -0.675,3.186 -1.242,5.454 -1.593,6.291 -0.678,1.71 -2.343,6.111 -4.614,12.141 l -3.162,12.648 c 4.533,-12.033 8.1,-21.534 9.18,-24.222 0.486,-1.242 1.134,-3.969 1.944,-7.965 3.36,-16.299 9.366,-53.022 13.779,-80.736"
       id="path643"

       style="fill:#1b2b1c" />
    <path
       d="m 283.065,430.794 c 0,1.296 -1.056,2.349 -2.352,2.349 -1.299,0 -2.349,-1.053 -2.349,-2.349 0,-1.299 1.05,-2.352 2.349,-2.352 1.296,0 2.352,1.053 2.352,2.352"
       id="path645"

       style="fill:#d1e6c8" />
    <path
       d="m 283.065,430.794 h -0.378 c 0,1.089 -0.885,1.971 -1.974,1.974 -1.092,-0.003 -1.971,-0.885 -1.974,-1.974 0.003,-1.092 0.882,-1.974 1.974,-1.977 1.089,0.003 1.974,0.885 1.974,1.977 h 0.75 c 0,-1.506 -1.221,-2.724 -2.724,-2.724 -1.506,0 -2.724,1.218 -2.724,2.724 0,1.503 1.218,2.724 2.724,2.724 1.503,0 2.724,-1.218 2.724,-2.724 h -0.372"
       id="path647"

       style="fill:#223924" />
    <path
       d="m 284.826,446.664 c 0,1.296 -1.053,2.349 -2.349,2.349 -1.299,0 -2.352,-1.053 -2.352,-2.349 0,-1.299 1.053,-2.352 2.352,-2.352 1.296,0 2.349,1.053 2.349,2.352"
       id="path649"

       style="fill:#d1e6c8" />
    <path
       d="m 284.826,446.664 h -0.375 c 0,1.089 -0.885,1.971 -1.974,1.974 -1.092,-0.003 -1.974,-0.885 -1.977,-1.974 0.003,-1.092 0.885,-1.974 1.977,-1.977 1.089,0.003 1.974,0.885 1.974,1.977 h 0.75 c 0,-1.506 -1.221,-2.727 -2.724,-2.727 -1.506,0 -2.727,1.221 -2.727,2.727 0,1.506 1.221,2.724 2.727,2.724 1.503,0 2.724,-1.218 2.724,-2.724 h -0.375"
       id="path651"

       style="fill:#223924" />
    <path
       d="m 265.431,468.705 c 0,1.293 -1.05,2.346 -2.349,2.346 -1.296,0 -2.349,-1.053 -2.349,-2.346 0,-1.302 1.053,-2.355 2.349,-2.355 1.299,0 2.349,1.053 2.349,2.355"
       id="path653"

       style="fill:#d1e6c8" />
    <path
       d="m 265.431,468.705 h -0.375 c 0,1.086 -0.882,1.968 -1.974,1.971 -1.089,-0.003 -1.974,-0.885 -1.974,-1.971 0,-1.098 0.885,-1.977 1.974,-1.98 1.092,0 1.974,0.882 1.974,1.98 h 0.75 c -0.003,-1.509 -1.218,-2.727 -2.724,-2.73 -1.506,0 -2.724,1.218 -2.724,2.73 0,1.5 1.221,2.721 2.724,2.721 1.506,0 2.724,-1.221 2.724,-2.721 h -0.375"
       id="path655"

       style="fill:#223924" />
    <path
       d="m 267.195,503.082 c 0,1.299 -1.05,2.352 -2.349,2.352 -1.299,0 -2.349,-1.053 -2.349,-2.352 0,-1.296 1.05,-2.349 2.349,-2.349 1.299,0 2.349,1.053 2.349,2.349"
       id="path657"

       style="fill:#d1e6c8" />
    <path
       d="m 267.195,503.082 h -0.375 c 0,1.092 -0.882,1.974 -1.974,1.974 -1.092,0 -1.974,-0.882 -1.974,-1.974 0,-1.089 0.882,-1.971 1.974,-1.974 1.092,0.003 1.974,0.885 1.974,1.974 h 0.75 c 0,-1.506 -1.218,-2.724 -2.724,-2.724 -1.506,0 -2.724,1.218 -2.724,2.724 0,1.506 1.218,2.727 2.724,2.727 1.506,0 2.724,-1.221 2.724,-2.727 h -0.375"
       id="path659"

       style="fill:#223924" />
    <path
       d="m 265.431,533.055 c 0,1.296 -1.05,2.352 -2.349,2.352 -1.296,0 -2.349,-1.056 -2.349,-2.352 0,-1.296 1.053,-2.349 2.349,-2.349 1.299,0 2.349,1.053 2.349,2.349"
       id="path661"

       style="fill:#d1e6c8" />
    <path
       d="m 265.431,533.055 h -0.375 c 0,1.089 -0.882,1.974 -1.974,1.977 -1.089,-0.003 -1.974,-0.888 -1.974,-1.977 0,-1.089 0.885,-1.971 1.974,-1.974 1.092,0.003 1.974,0.885 1.974,1.974 h 0.75 c 0,-1.503 -1.218,-2.724 -2.724,-2.724 -1.506,0 -2.724,1.221 -2.724,2.724 0,1.503 1.218,2.727 2.724,2.727 1.506,0 2.724,-1.224 2.724,-2.727 h -0.375"
       id="path663"

       style="fill:#223924" />
    <path
       d="m 248.685,563.028 c 0,1.293 -1.053,2.349 -2.352,2.349 -1.299,0 -2.349,-1.056 -2.349,-2.349 0,-1.296 1.05,-2.352 2.349,-2.352 1.299,0 2.352,1.056 2.352,2.352"
       id="path665"

       style="fill:#d1e6c8" />
    <path
       d="m 248.685,563.028 h -0.375 c -0.003,1.086 -0.885,1.971 -1.977,1.974 -1.089,-0.003 -1.974,-0.888 -1.974,-1.974 0,-1.089 0.885,-1.974 1.974,-1.977 1.092,0.003 1.974,0.888 1.977,1.977 h 0.75 c 0,-1.503 -1.221,-2.727 -2.727,-2.727 -1.506,0 -2.724,1.224 -2.724,2.727 0,1.503 1.218,2.724 2.724,2.724 1.506,0 2.727,-1.221 2.727,-2.724 h -0.375"
       id="path667"

       style="fill:#223924" />
    <path
       d="m 246.039,586.83 c 0,1.296 -1.053,2.352 -2.349,2.352 -1.302,0 -2.352,-1.056 -2.352,-2.352 0,-1.296 1.05,-2.349 2.352,-2.349 1.296,0 2.349,1.053 2.349,2.349"
       id="path669"

       style="fill:#d1e6c8" />
    <path
       d="m 246.039,586.83 h -0.375 c -0.003,1.089 -0.885,1.974 -1.974,1.977 -1.092,-0.003 -1.977,-0.888 -1.977,-1.977 0,-1.089 0.882,-1.971 1.977,-1.974 1.089,0.003 1.971,0.885 1.974,1.974 h 0.75 c 0,-1.506 -1.221,-2.724 -2.724,-2.724 -1.506,0 -2.727,1.218 -2.727,2.724 0,1.503 1.218,2.727 2.727,2.727 1.503,0 2.724,-1.224 2.724,-2.727 h -0.375"
       id="path671"

       style="fill:#223924" />
    <path
       d="m 228.996,602.7 c 0,1.293 -1.053,2.346 -2.349,2.346 -1.299,0 -2.352,-1.053 -2.352,-2.346 0,-1.299 1.053,-2.355 2.352,-2.355 1.296,0 2.349,1.056 2.349,2.355"
       id="path673"

       style="fill:#d1e6c8" />
    <path
       d="m 228.996,602.7 h -0.375 c 0,1.086 -0.882,1.968 -1.974,1.971 -1.092,-0.003 -1.974,-0.885 -1.977,-1.971 0.003,-1.092 0.888,-1.977 1.977,-1.98 1.089,0.003 1.974,0.885 1.974,1.98 h 0.75 c 0,-1.506 -1.218,-2.73 -2.724,-2.73 -1.506,0 -2.727,1.221 -2.727,2.73 0,1.5 1.221,2.721 2.727,2.721 1.503,0 2.724,-1.221 2.724,-2.721 h -0.375"
       id="path675"

       style="fill:#223924" />
    <path
       d="m 232.818,633.552 c 0,1.296 -1.056,2.349 -2.352,2.349 -1.299,0 -2.352,-1.053 -2.352,-2.349 0,-1.299 1.053,-2.352 2.352,-2.352 1.296,0 2.352,1.053 2.352,2.352"
       id="path677"

       style="fill:#d1e6c8" />
    <path
       d="m 232.818,633.552 h -0.375 c -0.003,1.089 -0.888,1.971 -1.977,1.974 -1.095,-0.003 -1.974,-0.885 -1.977,-1.974 0.003,-1.092 0.882,-1.974 1.977,-1.977 1.089,0.003 1.974,0.885 1.977,1.977 h 0.747 c 0,-1.506 -1.221,-2.727 -2.724,-2.727 -1.506,0 -2.727,1.221 -2.727,2.727 0,1.503 1.221,2.724 2.727,2.724 1.503,0 2.724,-1.221 2.724,-2.724 h -0.372"
       id="path679"

       style="fill:#223924" />
    <path
       d="m 211.656,659.115 c 0,1.299 -1.05,2.349 -2.349,2.349 -1.296,0 -2.349,-1.05 -2.349,-2.349 0,-1.299 1.053,-2.349 2.349,-2.349 1.299,0 2.349,1.05 2.349,2.349"
       id="path681"

       style="fill:#d1e6c8" />
    <path
       d="m 211.656,659.115 h -0.375 c 0,1.089 -0.882,1.971 -1.974,1.974 -1.089,-0.003 -1.974,-0.885 -1.974,-1.974 0,-1.089 0.885,-1.971 1.974,-1.974 1.092,0.003 1.974,0.885 1.974,1.974 h 0.75 c 0,-1.506 -1.218,-2.724 -2.724,-2.724 -1.503,0 -2.724,1.218 -2.724,2.724 0,1.506 1.221,2.724 2.724,2.724 1.506,0 2.724,-1.218 2.724,-2.724 h -0.375"
       id="path683"

       style="fill:#223924" />
  </g>
</svg>
